# exported by https://3dviewer.net
mtllib model.mtl
g Tetrahedron
v 0.5773502691896258 0.5773502691896258 0.5773502691896258
v -0.5773502691896258 -0.5773502691896258 0.5773502691896258
v 0.5773502691896258 -0.5773502691896258 -0.5773502691896258
v -0.5773502691896258 0.5773502691896258 -0.5773502691896258
vn 0.5773502691896257 -0.5773502691896257 0.5773502691896257
vn -0.5773502691896257 0.5773502691896257 0.5773502691896257
vn 0.5773502691896257 0.5773502691896257 -0.5773502691896257
vn -0.5773502691896257 -0.5773502691896257 -0.5773502691896257
usemtl Red
f 1//1 2//1 3//1
f 1//2 4//2 2//2
f 1//3 3//3 4//3
f 2//4 4//4 3//4
g Hexahedron
v 0.5773502691896258 3.5773502691896257 0.5773502691896258
v 0.5773502691896258 3.5773502691896257 -0.5773502691896258
v -0.5773502691896258 3.5773502691896257 -0.5773502691896258
v -0.5773502691896258 3.5773502691896257 0.5773502691896258
v 0.5773502691896258 2.4226497308103743 0.5773502691896258
v 0.5773502691896258 2.4226497308103743 -0.5773502691896258
v -0.5773502691896258 2.4226497308103743 0.5773502691896258
v -0.5773502691896258 2.4226497308103743 -0.5773502691896258
vn 0 1 0
vn 0 1 0
vn 1 0 0
vn 1 0 0
vn 0 0 1
vn 0 0 1
vn 0 0 -1
vn 0 0 -1
vn 0 -1 0
vn 0 -1 0
vn -1 0 0
vn -1 0 0
usemtl Green
f 5//5 6//5 7//5
f 5//6 7//6 8//6
f 5//7 9//7 10//7
f 5//8 10//8 6//8
f 5//9 8//9 11//9
f 5//10 11//10 9//10
f 6//11 10//11 12//11
f 6//12 12//12 7//12
f 9//13 11//13 12//13
f 9//14 12//14 10//14
f 8//15 7//15 12//15
f 8//16 12//16 11//16
g Octahedron
v 4 0 0
v 3 1 0
v 3 0 1
v 3 -1 0
v 3 0 -1
v 2 0 0
vn 0.5773502691896258 0.5773502691896258 0.5773502691896258
vn 0.5773502691896258 -0.5773502691896258 -0.5773502691896258
vn 0.5773502691896258 -0.5773502691896258 0.5773502691896258
vn 0.5773502691896258 0.5773502691896258 -0.5773502691896258
vn -0.5773502691896258 0.5773502691896258 -0.5773502691896258
vn -0.5773502691896258 -0.5773502691896258 0.5773502691896258
vn -0.5773502691896258 0.5773502691896258 0.5773502691896258
vn -0.5773502691896258 -0.5773502691896258 -0.5773502691896258
usemtl Blue
f 13//17 14//17 15//17
f 13//18 16//18 17//18
f 13//19 15//19 16//19
f 13//20 17//20 14//20
f 18//21 14//21 17//21
f 18//22 16//22 15//22
f 18//23 15//23 14//23
f 18//24 17//24 16//24
g Dodecahedron
v 3.5773502691896257 3.5773502691896257 0.5773502691896258
v 3 3.35682208977309 0.9341723589627159
v 3 2.64317791022691 0.9341723589627159
v 3.5773502691896257 2.4226497308103743 0.5773502691896258
v 3.9341723589627158 3 0.35682208977308993
v 3.9341723589627158 3 -0.35682208977308993
v 3.5773502691896257 3.5773502691896257 -0.5773502691896258
v 3.35682208977309 3.9341723589627158 0
v 2.64317791022691 3.9341723589627158 0
v 2.4226497308103743 3.5773502691896257 0.5773502691896258
v 3 3.35682208977309 -0.9341723589627159
v 2.4226497308103743 3.5773502691896257 -0.5773502691896258
v 3.5773502691896257 2.4226497308103743 -0.5773502691896258
v 3 2.64317791022691 -0.9341723589627159
v 2.4226497308103743 2.4226497308103743 0.5773502691896258
v 2.64317791022691 2.0658276410372842 0
v 3.35682208977309 2.0658276410372842 0
v 2.0658276410372842 3 -0.35682208977308993
v 2.0658276410372842 3 0.35682208977308993
v 2.4226497308103743 2.4226497308103743 -0.5773502691896258
vn 0.5257311121191338 0 0.8506508083520398
vn 0.5257311121191337 0 0.8506508083520399
vn 0.5257311121191336 0 0.8506508083520399
vn 0.8506508083520398 0.5257311121191338 0
vn 0.8506508083520399 0.5257311121191337 0
vn 0.85065080835204 0.5257311121191331 0
vn 0 0.8506508083520399 0.5257311121191337
vn 0 0.85065080835204 0.5257311121191337
vn 0 0.8506508083520403 0.5257311121191333
vn 0 0.8506508083520403 -0.5257311121191333
vn 0 0.85065080835204 -0.5257311121191337
vn 0 0.8506508083520399 -0.5257311121191337
vn 0.5257311121191336 0 -0.8506508083520399
vn 0.5257311121191337 0 -0.8506508083520399
vn 0.5257311121191338 0 -0.8506508083520398
vn 0 -0.8506508083520403 0.5257311121191333
vn 0 -0.85065080835204 0.5257311121191337
vn 0 -0.8506508083520399 0.5257311121191337
vn 0.85065080835204 -0.5257311121191331 0
vn 0.8506508083520399 -0.5257311121191337 0
vn 0.8506508083520398 -0.5257311121191338 0
vn -0.85065080835204 0.5257311121191331 0
vn -0.8506508083520399 0.5257311121191337 0
vn -0.8506508083520398 0.5257311121191338 0
vn -0.5257311121191336 0 0.8506508083520399
vn -0.5257311121191337 0 0.8506508083520399
vn -0.5257311121191338 0 0.8506508083520398
vn 0 -0.8506508083520399 -0.5257311121191337
vn 0 -0.85065080835204 -0.5257311121191337
vn 0 -0.8506508083520403 -0.5257311121191333
vn -0.5257311121191338 0 -0.8506508083520398
vn -0.5257311121191337 0 -0.8506508083520399
vn -0.5257311121191336 0 -0.8506508083520399
vn -0.8506508083520398 -0.5257311121191338 0
vn -0.8506508083520399 -0.5257311121191337 0
vn -0.85065080835204 -0.5257311121191331 0
usemtl Orange
f 19//25 20//25 21//25
f 19//26 21//26 22//26
f 19//27 22//27 23//27
f 19//28 23//28 24//28
f 19//29 24//29 25//29
f 19//30 25//30 26//30
f 19//31 26//31 27//31
f 19//32 27//32 28//32
f 19//33 28//33 20//33
f 25//34 29//34 30//34
f 25//35 30//35 27//35
f 25//36 27//36 26//36
f 25//37 24//37 31//37
f 25//38 31//38 32//38
f 25//39 32//39 29//39
f 22//40 21//40 33//40
f 22//41 33//41 34//41
f 22//42 34//42 35//42
f 22//43 35//43 31//43
f 22//44 31//44 24//44
f 22//45 24//45 23//45
f 28//46 27//46 30//46
f 28//47 30//47 36//47
f 28//48 36//48 37//48
f 28//49 37//49 33//49
f 28//50 33//50 21//50
f 28//51 21//51 20//51
f 31//52 35//52 34//52
f 31//53 34//53 38//53
f 31//54 38//54 32//54
f 30//55 29//55 32//55
f 30//56 32//56 38//56
f 30//57 38//57 36//57
f 33//58 37//58 36//58
f 33//59 36//59 38//59
f 33//60 38//60 34//60
g Icosahedron
v 6 2.0257311121191335 0.85065080835204
v 6 0.9742688878808664 0.85065080835204
v 6.85065080835204 1.5 0.5257311121191336
v 6.525731112119134 2.35065080835204 0
v 5.474268887880866 2.35065080835204 0
v 5.14934919164796 1.5 0.5257311121191336
v 6 2.0257311121191335 -0.85065080835204
v 6 0.9742688878808664 -0.85065080835204
v 5.14934919164796 1.5 -0.5257311121191336
v 6.85065080835204 1.5 -0.5257311121191336
v 6.525731112119134 0.64934919164796 0
v 5.474268887880866 0.64934919164796 0
vn 0.3568220897730898 0 0.9341723589627157
vn 0 0.9341723589627156 0.35682208977308993
vn -0.5773502691896255 0.5773502691896258 0.5773502691896258
vn 0.5773502691896255 0.5773502691896258 0.5773502691896258
vn -0.3568220897730898 0 0.9341723589627157
vn -0.3568220897730898 0 -0.9341723589627157
vn 0.5773502691896255 0.5773502691896258 -0.5773502691896258
vn 0 0.9341723589627156 -0.35682208977308993
vn 0.3568220897730898 0 -0.9341723589627157
vn -0.5773502691896255 0.5773502691896258 -0.5773502691896258
vn 0.5773502691896256 -0.5773502691896258 0.5773502691896258
vn 0 -0.9341723589627156 0.35682208977308993
vn -0.5773502691896256 -0.5773502691896258 0.5773502691896258
vn 0 -0.9341723589627156 -0.35682208977308993
vn -0.5773502691896256 -0.5773502691896258 -0.5773502691896258
vn 0.5773502691896256 -0.5773502691896258 -0.5773502691896258
vn 0.9341723589627158 0.3568220897730901 0
vn 0.9341723589627158 -0.35682208977309 0
vn -0.9341723589627158 0.3568220897730901 0
vn -0.9341723589627158 -0.35682208977309 0
usemtl Purple
f 39//61 40//61 41//61
f 39//62 42//62 43//62
f 39//63 43//63 44//63
f 39//64 41//64 42//64
f 39//65 44//65 40//65
f 45//66 46//66 47//66
f 45//67 42//67 48//67
f 45//68 43//68 42//68
f 45//69 48//69 46//69
f 45//70 47//70 43//70
f 40//71 49//71 41//71
f 40//72 50//72 49//72
f 40//73 44//73 50//73
f 46//74 49//74 50//74
f 46//75 50//75 47//75
f 46//76 48//76 49//76
f 42//77 41//77 48//77
f 49//78 48//78 41//78
f 43//79 47//79 44//79
f 50//80 44//80 47//80
